<svg width="27" height="32" viewBox="0 0 27 32" fill="none" xmlns="http://www.w3.org/2000/svg">
<g clip-path="url(#clip0_580_14)">
<path d="M21.7197 16.9681C21.7646 21.8017 25.96 23.4101 26.0064 23.4306C25.9708 23.544 25.336 25.7227 23.7961 27.9732C22.4649 29.9189 21.0833 31.8574 18.9067 31.8975C16.7683 31.9369 16.0806 30.6294 13.6356 30.6294C11.1913 30.6294 10.4273 31.8574 8.40282 31.9369C6.30199 32.0165 4.7022 29.833 3.36003 27.8945C0.61717 23.9292 -1.47888 16.6894 1.33559 11.8024C2.73374 9.37549 5.23248 7.83878 7.94446 7.79937C10.0074 7.76005 11.9546 9.18725 13.2157 9.18725C14.476 9.18725 16.8423 7.47093 19.3299 7.72297C20.3711 7.76635 23.2944 8.14354 25.1714 10.8911C25.0201 10.9848 21.6834 12.9273 21.7197 16.9682M17.7006 5.09958C18.816 3.74949 19.5667 1.87012 19.3619 0C17.7541 0.0646095 15.8102 1.07134 14.6569 2.42062C13.6235 3.61559 12.7185 5.52808 12.9627 7.36112C14.7547 7.49978 16.5852 6.45049 17.7006 5.09958Z" fill="black"/>
</g>
<defs>
<clipPath id="clip0_580_14">
<rect width="26.01" height="32" fill="white"/>
</clipPath>
</defs>
</svg>
