<svg width="139" height="370" viewBox="0 0 139 370" fill="none" xmlns="http://www.w3.org/2000/svg">
<g clip-path="url(#clip0_1_5)">
<path fill-rule="evenodd" clip-rule="evenodd" d="M-7.26224 132.944L-2.90558 134.752L0.957878 136.643L6.54758 139.766L13.2881 143.711L20.3691 149.71C24.4792 153.08 31.3021 160.56 33.7683 166.232C35.9158 171.17 38.2075 174.616 40.5919 188.919C41.2497 192.864 40.5927 207.167 40.593 213.25C40.5932 219.333 40.2915 231.829 41.0051 240.047C42.3094 255.065 45.4169 260.332 48.367 267.961C52.2354 277.965 66.1267 292.102 80.1374 298.406C119.592 316.16 131.676 324.79 136.444 338.189C142.404 354.937 137.76 367.37 118.115 410.69C105.441 492.73 74.5283 532.16 67.7426 550.972C42.0572 594.946 58.5412 565.106 37.3577 587.744L34.9906 601.796L35.6799 606.096L28.8744 616.955L32.6028 645.719C29.314 625.991 22.7363 586.536 16.1586 547.08C9.58089 507.625 17.9728 552.082 11.3951 512.626C4.81736 473.171 -1.76034 433.716 -8.33803 394.26C-14.9157 354.805 -21.4934 315.349 -28.0711 275.894C-34.6488 236.438 -41.2265 196.983 -47.8042 157.527C-54.3819 118.072 -60.9596 78.6164 -67.5373 39.1609C-74.115 -0.294537 -58.2284 94.9965 -64.806 55.541C-71.3837 16.0855 -58.2284 94.9965 -64.806 55.541C-71.3837 16.0855 -81.8079 -46.4468 -64.8054 55.5402C-47.803 157.527 -62.5608 69.0115 -65.8497 49.2837L-51.9855 59.2145L-7.26224 132.944Z" fill="url(#paint0_linear_1_5)"/>
</g>
<defs>
<linearGradient id="paint0_linear_1_5" x1="-39.892" y1="210.87" x2="-5.44135" y2="417.518" gradientUnits="userSpaceOnUse">
<stop offset="0.135" stop-color="#E52AE9" stop-opacity="0.85"/>
<stop offset="0.825" stop-color="#7B3EFD" stop-opacity="0.85"/>
</linearGradient>
<clipPath id="clip0_1_5">
<rect width="139" height="370" fill="white"/>
</clipPath>
</defs>
</svg>
