<svg width="32" height="32" viewBox="0 0 32 32" fill="none" xmlns="http://www.w3.org/2000/svg">
<g clip-path="url(#clip0_580_5)">
<path d="M11.1468 1.0525C7.94946 2.16167 5.19211 4.26691 3.27973 7.059C1.36735 9.85109 0.400732 13.1829 0.52186 16.5649C0.642987 19.947 1.84547 23.201 3.9527 25.8492C6.05992 28.4973 8.9608 30.3999 12.2293 31.2775C14.8791 31.9612 17.6553 31.9913 20.3193 31.365C22.7325 30.8229 24.9637 29.6634 26.7943 28C28.6995 26.2159 30.0823 23.9462 30.7943 21.435C31.5681 18.7042 31.7057 15.8323 31.1968 13.04H16.3168V19.2125H24.9343C24.762 20.197 24.393 21.1366 23.8491 21.9751C23.3053 22.8136 22.5979 23.5338 21.7693 24.0925C20.717 24.7886 19.5307 25.2569 18.2868 25.4675C17.0391 25.6995 15.7594 25.6995 14.5118 25.4675C13.2472 25.2061 12.051 24.6841 10.9993 23.935C9.30962 22.739 8.04094 21.0398 7.37425 19.08C6.69629 17.0835 6.69629 14.919 7.37425 12.9225C7.84882 11.523 8.63334 10.2488 9.66925 9.19499C10.8547 7.96686 12.3556 7.08899 14.0071 6.65769C15.6587 6.22638 17.3972 6.25832 19.0318 6.75C20.3087 7.14197 21.4764 7.82684 22.4418 8.75C23.4134 7.78333 24.3834 6.81416 25.3518 5.8425C25.8518 5.32 26.3968 4.8225 26.8893 4.2875C25.4157 2.91619 23.686 1.84914 21.7993 1.1475C18.3635 -0.10003 14.6042 -0.133556 11.1468 1.0525Z" fill="white"/>
<path d="M11.1489 1.05249C14.6061 -0.134368 18.3654 -0.101725 21.8014 1.14499C23.6884 1.8514 25.4174 2.92358 26.8889 4.29999C26.3889 4.83499 25.8614 5.33499 25.3514 5.85499C24.3814 6.82332 23.4122 7.78832 22.4439 8.74999C21.4785 7.82683 20.3108 7.14197 19.0339 6.74999C17.3998 6.25659 15.6615 6.22281 14.0095 6.65235C12.3575 7.08188 10.8557 7.95814 9.66891 9.18499C8.63299 10.2388 7.84847 11.513 7.37391 12.9125L2.19141 8.89999C4.04643 5.22139 7.25828 2.40755 11.1489 1.05249Z" fill="#E33629"/>
<path d="M0.813899 12.8749C1.09245 11.4944 1.55491 10.1575 2.1889 8.8999L7.3714 12.9224C6.69344 14.9189 6.69344 17.0834 7.3714 19.0799C5.64473 20.4132 3.91723 21.7532 2.1889 23.0999C0.601776 19.9407 0.117731 16.3412 0.813899 12.8749Z" fill="#F8BD00"/>
<path d="M16.3175 13.0376H31.1975C31.7065 15.8299 31.5688 18.7018 30.795 21.4326C30.0831 23.9438 28.7002 26.2135 26.795 27.9976C25.1225 26.6926 23.4425 25.3976 21.77 24.0926C22.5992 23.5333 23.3069 22.8123 23.8508 21.9729C24.3946 21.1335 24.7634 20.193 24.935 19.2076H16.3175C16.315 17.1526 16.3175 15.0951 16.3175 13.0376Z" fill="#587DBD"/>
<path d="M2.1875 23.1001C3.91583 21.7667 5.64333 20.4267 7.37 19.0801C8.03802 21.0406 9.30851 22.7398 11 23.9351C12.055 24.6807 13.2538 25.1984 14.52 25.4551C15.7676 25.6871 17.0474 25.6871 18.295 25.4551C19.539 25.2445 20.7252 24.7762 21.7775 24.0801C23.45 25.3851 25.13 26.6801 26.8025 27.9851C24.9722 29.6494 22.741 30.8098 20.3275 31.3526C17.6635 31.9788 14.8873 31.9488 12.2375 31.2651C10.1418 30.7055 8.18419 29.7191 6.4875 28.3676C4.69165 26.9418 3.22489 25.145 2.1875 23.1001Z" fill="#319F43"/>
</g>
<defs>
<clipPath id="clip0_580_5">
<rect width="32" height="32" fill="white"/>
</clipPath>
</defs>
</svg>
