<svg width="430" height="162" viewBox="0 0 430 162" fill="none" xmlns="http://www.w3.org/2000/svg">
<g clip-path="url(#clip0_1_2)">
<path fill-rule="evenodd" clip-rule="evenodd" d="M463.532 -83.144L431.719 -20.3884L419.625 0.538864L405.621 22.3383C390.345 46.7534 365.521 64.8157 355.973 68.5527C342.606 73.7846 321.549 71.5927 308.234 68.5527C285.32 63.3209 277.045 59.8331 263.042 55.4732C249.038 51.1133 235.035 46.7534 223.578 46.7534C204.387 46.7534 196.844 49.8831 186.66 52.8573C173.305 56.7572 149.105 72.0259 128.098 104.298C86.0901 168.829 50.4455 165.338 31.9859 158.401C-21.4809 127.846 -15.1157 69.4236 -88.9633 78.1887C-189.533 33.718 -150.706 24.9799 -172.985 8.10266C-223.085 -48.2654 -188.897 -11.6427 -213.085 -54.3693L-230.271 -62.3239H-235.815L-248.093 -77.0402L-285 -78.5594C-259.54 -78.7774 -208.62 -79.2131 -157.699 -79.6489C-106.779 -80.0846 -164.352 -77.9056 -113.432 -78.3413C-62.5115 -78.7771 -11.5912 -79.2128 39.3291 -79.6486C90.249 -80.0844 135.74 -80.4737 186.66 -80.9094C237.58 -81.3452 288.501 -81.7809 339.421 -82.2168C390.341 -82.6525 446.692 -83.1348 497.612 -83.5705C548.532 -84.0063 425.552 -82.953 476.472 -83.3887C425.552 -82.953 527.392 -83.8245 476.472 -83.3887C527.392 -83.8245 608.095 -84.5138 476.473 -83.3875C344.851 -82.2611 459.087 -83.2408 484.548 -83.4587L469.271 -62.3262L463.532 -83.144Z" fill="url(#paint0_linear_1_2)"/>
</g>
<defs>
<linearGradient id="paint0_linear_1_2" x1="164.393" y1="216.401" x2="98.2677" y2="29.9921" gradientUnits="userSpaceOnUse">
<stop offset="0.405" stop-color="#E52AE9" stop-opacity="0.85"/>
<stop offset="1" stop-color="#EAB534" stop-opacity="0.85"/>
</linearGradient>
<clipPath id="clip0_1_2">
<rect width="430" height="162" fill="white"/>
</clipPath>
</defs>
</svg>
